<svg xmlns="http://www.w3.org/2000/svg" width="330" height="108" fill="none">
  <path fill="#005568" fill-opacity=".5" d="M72 20H20v6h52v-6Zm0 62H20v6h52v-6ZM0 40h6v28H0V40Zm92 0h-6v28h6V40Z"/>
  <path fill="#53D1FF" d="M8 20h14v6H8a2 2 0 0 0-2 2v14H0V28a8 8 0 0 1 8-8Zm62 0v6h14a2 2 0 0 1 2 2v14h6V28a8 8 0 0 0-8-8H70Zm14 62H70v6h14a8 8 0 0 0 8-8V66h-6v14a2 2 0 0 1-2 2ZM6 80V66H0v14a8 8 0 0 0 8 8h14v-6H8a2 2 0 0 1-2-2Zm86.608 10.229 4.578 16.787c.306 1.121 1.807 1.328 2.405.332L104 100l7.348-4.409c.996-.598.789-2.099-.332-2.405l-16.787-4.578a1.32 1.32 0 0 0-1.621 1.62ZM73.924 47.743a.913.913 0 0 0-.459.114l-4.409 2.576a.943.943 0 0 0-.459.815v5.143c0 .334.174.648.459.814l1.151.673c.56.279.766.274 1.02.274.829 0 1.302-.508 1.302-1.392v-5.076c0-.072-.061-.124-.131-.124h-.552c-.071 0-.131.052-.131.123v5.077c0 .392-.404.786-1.058.455l-1.198-.71c-.043-.024-.075-.065-.075-.114v-5.143a.15.15 0 0 1 .075-.123l4.4-2.567a.128.128 0 0 1 .13 0l4.4 2.567a.152.152 0 0 1 .075.123v5.143c0 .049-.025.1-.066.123l-4.409 2.567a.134.134 0 0 1-.13 0l-1.133-.682a.117.117 0 0 0-.113 0 2.9 2.9 0 0 1-.665.303c-.072.025-.181.065.038.19l1.479.88c.14.081.298.124.459.123a.896.896 0 0 0 .458-.123l4.41-2.567a.944.944 0 0 0 .458-.814v-5.143a.943.943 0 0 0-.459-.814l-4.409-2.577a.91.91 0 0 0-.458-.114Z"/>
  <path fill="#53D1FF" d="M75.103 51.418c-1.255 0-2.003.541-2.003 1.44 0 .975.742 1.243 1.947 1.364 1.442.143 1.554.357 1.554.644 0 .498-.392.71-1.32.71-1.165 0-1.421-.294-1.507-.88-.01-.063-.058-.114-.122-.114h-.57a.135.135 0 0 0-.132.132c0 .751.404 1.639 2.331 1.639 1.395 0 2.2-.554 2.2-1.525 0-.962-.65-1.22-2.003-1.402-1.368-.183-1.498-.272-1.498-.596 0-.268.11-.626 1.123-.626.905 0 1.24.198 1.376.815a.128.128 0 0 0 .122.104h.571c.035 0 .07-.022.094-.047.023-.027.04-.058.037-.095-.088-1.063-.789-1.563-2.2-1.563ZM48.003 41a.28.28 0 0 0-.28.284v7.246a.192.192 0 0 1-.29.17l-1.17-.682a.556.556 0 0 0-.563 0l-4.67 2.728a.583.583 0 0 0-.281.502v5.455c0 .204.106.39.28.493l4.671 2.727a.554.554 0 0 0 .562 0l4.671-2.727a.564.564 0 0 0 .281-.493v-13.6a.583.583 0 0 0-.29-.502l-2.78-1.573a.269.269 0 0 0-.14-.028Zm-30.048 6.81a.522.522 0 0 0-.253.066l-4.671 2.728a.564.564 0 0 0-.281.492l.01 7.322a.28.28 0 0 0 .14.246.27.27 0 0 0 .28 0l2.771-1.61a.58.58 0 0 0 .29-.493v-3.419c0-.204.107-.391.282-.492l1.179-.692a.549.549 0 0 1 .28-.076c.097 0 .196.025.282.076l1.179.692a.562.562 0 0 1 .28.492v3.42a.58.58 0 0 0 .291.492l2.77 1.61a.27.27 0 0 0 .282 0 .284.284 0 0 0 .14-.246l.01-7.322a.57.57 0 0 0-.281-.492l-4.671-2.728a.518.518 0 0 0-.253-.066h-.056Zm41.974.066a.555.555 0 0 0-.28.076l-4.672 2.728a.563.563 0 0 0-.28.492v5.456c0 .205.113.39.29.492l4.633 2.671a.56.56 0 0 0 .553.01l2.808-1.582a.282.282 0 0 0 .01-.492l-4.7-2.729a.307.307 0 0 1-.15-.255v-1.705c0-.102.063-.196.15-.246l1.46-.853a.278.278 0 0 1 .281 0l1.46.853a.282.282 0 0 1 .14.246v1.345a.285.285 0 0 0 .141.246.276.276 0 0 0 .28 0l2.8-1.648a.566.566 0 0 0 .28-.492v-1.317a.57.57 0 0 0-.28-.492l-4.643-2.728a.551.551 0 0 0-.281-.076ZM45.962 51.95c.025 0 .053.006.075.019l1.601.937a.147.147 0 0 1 .075.123v1.876c0 .05-.031.097-.075.123l-1.6.937a.14.14 0 0 1-.141 0l-1.6-.937a.147.147 0 0 1-.076-.123v-1.876a.15.15 0 0 1 .075-.123l1.601-.937a.123.123 0 0 1 .066-.02Z"/>
  <path fill="#53D1FF" d="M31.987 47.848a.554.554 0 0 0-.281.075l-4.671 2.719a.583.583 0 0 0-.281.502v5.455c0 .204.106.39.28.493l4.672 2.727a.554.554 0 0 0 .562 0l4.67-2.727a.563.563 0 0 0 .281-.493v-5.455c0-.204-.106-.4-.28-.502l-4.671-2.719a.554.554 0 0 0-.281-.075Zm27.933 4.868c-.019 0-.04 0-.056.01l-.899.53a.11.11 0 0 0-.056.094v1.042c0 .04.022.075.056.095l.899.521c.033.02.07.02.103 0l.898-.521a.11.11 0 0 0 .056-.095V53.35a.112.112 0 0 0-.056-.094l-.898-.53c-.017-.01-.029-.01-.047-.01ZM311.948 44.4l6.3 16.2h2.628l-1.188 3.6h-4.356l-7.74-19.8h4.356Zm8.82 24.696c-.528 1.488-1.296 2.64-2.304 3.456a5.34 5.34 0 0 1-3.456 1.224c-1.92 0-3.444-.516-4.572-1.548-1.128-1.008-1.764-2.46-1.908-4.356h3.6c.36.84.732 1.428 1.116 1.764.408.36.924.54 1.548.54.576 0 1.044-.18 1.404-.54.384-.36.744-.948 1.08-1.764l8.172-23.472h4.032l-8.712 24.696Zm-32.58-13.356-7.38-11.34h4.752l5.4 8.28.396 1.044h.36l.396-1.044 5.652-8.28h4.428l-7.452 10.98L301.76 66h-4.824l-4.968-7.488-.396-1.044h-.36l-.396 1.044-5.04 7.488h-4.536l6.948-10.26ZM264.5 66.576c-2.112 0-3.972-.468-5.58-1.404-1.584-.96-2.82-2.292-3.708-3.996-.888-1.728-1.332-3.72-1.332-5.976s.444-4.236 1.332-5.94c.888-1.728 2.124-3.06 3.708-3.996 1.608-.96 3.468-1.44 5.58-1.44s3.96.48 5.544 1.44c1.608.936 2.856 2.268 3.744 3.996.888 1.704 1.332 3.684 1.332 5.94 0 2.256-.444 4.248-1.332 5.976-.888 1.704-2.136 3.036-3.744 3.996-1.584.936-3.432 1.404-5.544 1.404Zm0-3.744c2.064 0 3.684-.684 4.86-2.052 1.2-1.368 1.8-3.228 1.8-5.58s-.6-4.212-1.8-5.58c-1.176-1.368-2.796-2.052-4.86-2.052-2.064 0-3.696.684-4.896 2.052-1.176 1.368-1.764 3.228-1.764 5.58s.588 4.212 1.764 5.58c1.2 1.368 2.832 2.052 4.896 2.052ZM236.528 44.4v1.656h1.08c.456-.72 1.092-1.272 1.908-1.656.816-.384 1.74-.576 2.772-.576 1.92 0 3.432.636 4.536 1.908 1.104 1.248 1.656 2.964 1.656 5.148v2.88h-4.104v-2.304c0-1.272-.288-2.232-.864-2.88-.576-.672-1.416-1.008-2.52-1.008-1.392 0-2.436.588-3.132 1.764-.696 1.152-1.044 2.868-1.044 5.148v7.776h7.488V66H228.32v-3.744h4.536V48.144H227.6V44.4h8.928Zm-35.568 0h3.96v2.16H206c.504-.816 1.296-1.476 2.376-1.98 1.104-.504 2.304-.756 3.6-.756 1.92 0 3.612.48 5.076 1.44 1.488.936 2.628 2.268 3.42 3.996.816 1.704 1.224 3.684 1.224 5.94 0 2.256-.408 4.248-1.224 5.976-.792 1.704-1.932 3.036-3.42 3.996-1.464.936-3.156 1.404-5.076 1.404-1.296 0-2.496-.252-3.6-.756-1.08-.504-1.872-1.164-2.376-1.98h-1.08v9.36h-3.96V44.4Zm10.296 18.432c2.016 0 3.6-.684 4.752-2.052 1.152-1.368 1.728-3.228 1.728-5.58s-.576-4.212-1.728-5.58c-1.152-1.368-2.736-2.052-4.752-2.052-2.016 0-3.6.684-4.752 2.052-1.152 1.368-1.728 3.228-1.728 5.58s.576 4.212 1.728 5.58c1.152 1.368 2.736 2.052 4.752 2.052Zm-18 2.448c0 1.704-.408 3.192-1.224 4.464-.816 1.272-1.992 2.256-3.528 2.952-1.536.72-3.336 1.08-5.4 1.08-1.92 0-3.636-.3-5.148-.9-1.488-.576-2.664-1.404-3.528-2.484-.864-1.056-1.332-2.28-1.404-3.672h3.888c.408 1.08 1.152 1.92 2.232 2.52 1.104.624 2.424.936 3.96.936 1.944 0 3.456-.468 4.536-1.404 1.104-.912 1.656-2.196 1.656-3.852v-2.304h-1.08c-.528.72-1.32 1.296-2.376 1.728a8.49 8.49 0 0 1-3.312.648c-1.872 0-3.528-.432-4.968-1.296-1.44-.888-2.556-2.124-3.348-3.708-.792-1.584-1.188-3.42-1.188-5.508 0-2.112.396-3.972 1.188-5.58.792-1.608 1.908-2.856 3.348-3.744 1.44-.888 3.096-1.332 4.968-1.332 1.2 0 2.316.228 3.348.684 1.056.456 1.836 1.068 2.34 1.836h1.08V44.4h3.96v20.88Zm-16.272-10.8c0 2.136.552 3.828 1.656 5.076 1.128 1.224 2.664 1.836 4.608 1.836 1.944 0 3.468-.612 4.572-1.836 1.128-1.248 1.692-2.94 1.692-5.076 0-2.136-.564-3.816-1.692-5.04-1.104-1.248-2.628-1.872-4.572-1.872s-3.48.624-4.608 1.872c-1.104 1.224-1.656 2.904-1.656 5.04ZM149.84 44.4v1.728h2.844l-2.34 1.44c.072-1.152.456-2.064 1.152-2.736.696-.672 1.608-1.008 2.736-1.008 1.032 0 1.908.396 2.628 1.188.72.768 1.164 1.788 1.332 3.06l-2.34-1.728h4.608l-2.16 1.224c.072-1.128.492-2.028 1.26-2.7.792-.696 1.776-1.044 2.952-1.044 1.416 0 2.556.564 3.42 1.692.888 1.128 1.332 2.604 1.332 4.428V66h-3.96V51.6c0-1.104-.204-1.932-.612-2.484-.384-.552-.972-.828-1.764-.828s-1.392.276-1.8.828c-.384.552-.576 1.38-.576 2.484V66h-3.96V51.6c0-1.104-.204-1.932-.612-2.484-.384-.552-.972-.828-1.764-.828s-1.392.276-1.8.828c-.384.552-.576 1.38-.576 2.484V66h-3.96V44.4h3.96Zm-17.1 0v17.856h7.2V66h-18.36v-3.744h7.2V48.144h-7.2V44.4h11.16Zm-2.268-3.312c-.984 0-1.764-.24-2.34-.72-.552-.504-.828-1.2-.828-2.088 0-.888.276-1.572.828-2.052.576-.504 1.356-.756 2.34-.756.984 0 1.752.252 2.304.756.576.48.864 1.164.864 2.052 0 .888-.288 1.584-.864 2.088-.552.48-1.32.72-2.304.72Z"/>
</svg>
