<svg width="654" height="547" viewBox="0 0 654 547" fill="none" xmlns="http://www.w3.org/2000/svg">
<path fill-rule="evenodd" clip-rule="evenodd" d="M554.5 0V72.3H534.4V160.8H554.5V233.2H534.4V321.7H554.5V394.1H482.2V374H313.4V394.1H241.1V374H72.3V394.2H0V321.8H20.1V233.3H0V160.9H20.1V72.4H0V0H72.3V20.1H241.1V0H313.4V20.1H482.2V0H554.5ZM297.4 16.1H257.2V56.3H297.4V16.1ZM16.1 16.1V56.3H56.3V16.1H16.1ZM16.1 177V217.2H56.3V177H16.1ZM16.1 378H56.3V337.8H16.1V378ZM257.2 378H297.4V337.8H257.2V378ZM313.4 341.8H482.2V321.7H502.3V233.2H482.2V160.8H502.3V72.3H482.2V52.2H313.4V72.3H241.1V52.2H72.3V72.3H52.2V160.8H72.3V233.2H52.2V321.7H72.3V341.8H241.1V321.7H313.4V341.8ZM538.5 378V337.8H498.3V378H538.5ZM538.5 217.2V177H498.3V217.2H538.5ZM498.3 16.1V56.3H538.5V16.1H498.3ZM289.763 129.796C290.195 129.548 290.812 129.548 291.306 129.796L306.917 138.551C307.904 139.109 308.521 140.165 308.521 141.344V217.028C308.521 218.146 307.904 219.201 306.917 219.76L280.755 234.971C279.768 235.53 278.595 235.53 277.608 234.971L251.446 219.76C250.459 219.201 249.842 218.146 249.842 217.028V186.667C249.842 185.55 250.459 184.495 251.446 183.936L277.608 168.725C278.595 168.166 279.768 168.166 280.755 168.725L287.295 172.512C287.666 172.698 288.036 172.698 288.406 172.512C288.776 172.263 288.961 171.891 288.961 171.518V131.162C288.961 130.603 289.27 130.107 289.763 129.796ZM288.529 207.715C288.776 207.591 288.9 207.342 288.9 207.032V196.602C288.9 196.353 288.776 196.043 288.529 195.919L279.582 190.703C279.336 190.579 279.027 190.579 278.78 190.703L269.833 195.919C269.587 196.043 269.463 196.291 269.463 196.602V207.032C269.463 207.28 269.587 207.591 269.833 207.715L278.78 212.93C279.027 213.055 279.336 213.055 279.582 212.93L288.529 207.715ZM165.556 185.859C165.556 184.742 164.939 183.687 163.952 183.128L137.851 167.917C137.419 167.668 136.926 167.544 136.432 167.482H136.185C135.692 167.482 135.198 167.668 134.766 167.917L108.604 183.066C107.617 183.624 107 184.68 107 185.859L107.062 226.588C107.062 227.147 107.37 227.706 107.864 227.954C108.357 228.265 108.974 228.265 109.406 227.954L124.955 219.014C125.943 218.455 126.56 217.4 126.56 216.282V197.221C126.56 196.104 127.177 195.048 128.164 194.49L134.766 190.64C135.26 190.33 135.815 190.206 136.37 190.206C136.926 190.206 137.481 190.33 137.913 190.64L144.515 194.49C145.502 195.048 146.12 196.104 146.12 197.221V216.282C146.12 217.4 146.737 218.455 147.724 219.014L163.15 227.954C163.643 228.265 164.26 228.265 164.754 227.954C165.247 227.706 165.556 227.147 165.556 226.588V185.859ZM419.462 234.518C420.264 234.952 421.128 235.201 422.054 235.201C422.979 235.201 423.905 234.953 424.645 234.642L449.266 220.3C450.868 219.369 451.855 217.63 451.855 215.768V187.146C451.855 185.283 450.868 183.545 449.266 182.613L424.645 168.272C423.103 167.402 421.005 167.402 419.462 168.272L394.843 182.613C393.239 183.545 392.251 185.283 392.251 187.146V215.768C392.251 217.63 393.239 219.369 394.843 220.3L401.322 224.025C404.469 225.577 405.579 225.577 406.998 225.577C411.626 225.577 414.279 222.721 414.279 217.816V189.567C414.279 189.133 413.909 188.822 413.539 188.822H410.392C409.96 188.822 409.652 189.195 409.652 189.567V217.816C409.652 219.99 407.369 222.163 403.728 220.3L397.003 216.388C396.756 216.264 396.632 215.954 396.632 215.706V187.084C396.632 186.835 396.756 186.525 397.003 186.401L421.622 172.121C421.807 171.997 422.115 171.997 422.362 172.121L446.982 186.401C447.227 186.525 447.353 186.773 447.353 187.084V215.706C447.353 216.016 447.227 216.264 446.982 216.388L422.362 230.731C422.177 230.855 421.869 230.855 421.622 230.731L415.328 226.943C415.143 226.819 414.896 226.757 414.711 226.881C412.983 227.874 412.675 227.999 411.009 228.558C410.639 228.682 410.022 228.93 411.256 229.613L419.462 234.518ZM416.685 206.329C416.685 210.551 418.906 215.518 429.706 215.518C437.478 215.518 441.983 212.413 441.983 206.95C441.983 201.61 438.404 200.182 430.815 199.189C423.163 198.196 422.361 197.637 422.361 195.836C422.361 194.346 423.04 192.36 428.717 192.36C433.776 192.36 435.688 193.477 436.43 196.892C436.491 197.202 436.801 197.451 437.107 197.451H440.377C440.564 197.451 440.748 197.326 440.874 197.202C440.996 197.016 441.058 196.83 441.058 196.643C440.564 190.683 436.678 187.951 428.779 187.951C421.744 187.951 417.549 190.932 417.549 195.96C417.549 201.362 421.744 202.852 428.47 203.535C436.552 204.342 437.172 205.522 437.172 207.136C437.172 209.93 434.949 211.11 429.767 211.11C423.225 211.11 421.806 209.495 421.313 206.205C421.313 205.832 421.004 205.584 420.634 205.584H417.425C416.993 205.584 416.685 205.956 416.685 206.329ZM378.366 196.353C379.354 195.794 379.909 194.739 379.909 193.621V186.233C379.909 185.115 379.292 184.06 378.366 183.501L352.389 168.352C351.402 167.793 350.23 167.793 349.243 168.352L323.081 183.563C322.094 184.122 321.477 185.178 321.477 186.295V216.655C321.477 217.773 322.094 218.828 323.081 219.387L349.058 234.288C350.045 234.847 351.217 234.847 352.143 234.288L367.877 225.472C368.371 225.223 368.679 224.665 368.679 224.106C368.679 223.547 368.371 222.988 367.877 222.74L341.592 207.529C341.098 207.218 340.79 206.722 340.79 206.163V196.664C340.79 196.105 341.098 195.546 341.592 195.298L349.798 190.579C350.292 190.269 350.909 190.269 351.402 190.579L359.609 195.298C360.102 195.608 360.411 196.105 360.411 196.664V204.114C360.411 204.673 360.719 205.231 361.213 205.48C361.707 205.79 362.324 205.79 362.817 205.48L378.366 196.353ZM351.033 194.926C350.848 194.802 350.601 194.802 350.416 194.926L345.418 197.844C345.233 197.968 345.109 198.154 345.109 198.403V204.239C345.109 204.487 345.233 204.674 345.418 204.798L350.416 207.716C350.601 207.84 350.848 207.84 351.033 207.716L356.031 204.798C356.216 204.674 356.339 204.487 356.339 204.239V198.403C356.339 198.154 356.216 197.968 356.031 197.844L351.033 194.926ZM209.301 168.475C208.314 167.917 207.141 167.917 206.154 168.475L180.177 183.562C179.19 184.121 178.635 185.177 178.635 186.294V216.53C178.635 217.648 179.252 218.703 180.177 219.262L206.154 234.349C207.141 234.908 208.314 234.908 209.301 234.349L235.278 219.262C236.265 218.703 236.82 217.648 236.82 216.53V186.294C236.82 185.177 236.203 184.121 235.278 183.562L209.301 168.475Z" fill="url(#paint0_linear_9_526)" style=""/>
<path fill-rule="evenodd" clip-rule="evenodd" d="M575.4 491.4H653.2L519.8 357.9L575.4 491.4Z" fill="url(#paint1_linear_9_526)" style=""/>
<path fill-rule="evenodd" clip-rule="evenodd" d="M519.8 357.9V546.9L575.3 491.3" fill="url(#paint2_linear_9_526)" style=""/>
<defs>
<linearGradient id="paint0_linear_9_526" x1="554.5" y1="394.2" x2="554.5" y2="0" gradientUnits="userSpaceOnUse">
<stop stop-color="#1D40B2" style="stop-color:#1D40B2;stop-color:color(display-p3 0.1137 0.2510 0.6980);stop-opacity:1;"/>
<stop offset="1" stop-color="#1680D6" style="stop-color:#1680D6;stop-color:color(display-p3 0.0863 0.5020 0.8392);stop-opacity:1;"/>
</linearGradient>
<linearGradient id="paint1_linear_9_526" x1="540.967" y1="436.845" x2="632.054" y2="412.466" gradientUnits="userSpaceOnUse">
<stop stop-color="#1C1C1C" style="stop-color:#1C1C1C;stop-color:color(display-p3 0.1098 0.1098 0.1098);stop-opacity:1;"/>
<stop offset="1" stop-color="#3D3E3F" style="stop-color:#3D3E3F;stop-color:color(display-p3 0.2392 0.2431 0.2471);stop-opacity:1;"/>
</linearGradient>
<linearGradient id="paint2_linear_9_526" x1="496.24" y1="458.764" x2="561.943" y2="441.177" gradientUnits="userSpaceOnUse">
<stop stop-color="#1C1C1C" style="stop-color:#1C1C1C;stop-color:color(display-p3 0.1098 0.1098 0.1098);stop-opacity:1;"/>
<stop offset="1" stop-color="#3D3E3F" style="stop-color:#3D3E3F;stop-color:color(display-p3 0.2392 0.2431 0.2471);stop-opacity:1;"/>
</linearGradient>
</defs>
</svg>
