<svg xmlns="http://www.w3.org/2000/svg" width="266" height="100" fill="none">
  <g clip-path="url(#a)">
    <path fill="#fff" d="M94.056 42.55v2.915h5.803v11.648h-5.803v2.915h14.733v-2.915h-5.69V42.549h-9.043Zm4.916-4.367c0 1.423.83 2.423 2.451 2.423 1.619 0 2.45-1 2.45-2.423 0-1.422-.831-2.422-2.45-2.422-1.62 0-2.451 1-2.451 2.422Zm14.479 4.366v17.465h3.239V48.746c0-2.507.859-3.633 2.775-3.633 1.915 0 2.774 1.14 2.774 3.633v11.268h3.24V48.746c0-2.535.859-3.633 2.775-3.633 1.915 0 2.774 1.112 2.774 3.633v11.268h3.24V47.845c0-3.465-2.099-5.76-5.24-5.76-1.648 0-3.155.732-4.014 1.915h-.591c-.86-1.225-2.155-1.916-3.747-1.916-1.648 0-2.887.578-3.563 1.634h-.409V42.55h-3.253Zm42.704 16.902V42.549h-3.24v1.578h-.887c-.831-1.226-2.676-2.043-4.662-2.043-4.662 0-7.774 3.437-7.774 8.62 0 5.099 3.126 8.507 7.774 8.507 1.916 0 3.775-.76 4.662-1.915h.887v1.859c0 2.676-1.887 4.253-5.07 4.253-2.535 0-4.422-1.042-5.07-2.788h-3.183c.183 3.436 3.478 5.704 8.253 5.704 5.155-.014 8.31-2.746 8.31-6.873Zm-13.324-8.747c0-3.465 1.944-5.591 5.127-5.591s5.127 2.126 5.127 5.591c0 3.465-1.944 5.592-5.127 5.592s-5.127-2.127-5.127-5.592Zm28.648-8.62c-2.127 0-4.071.874-4.887 2.212h-.888v-1.747h-3.239v23.296h3.239v-7.577h.888c.816 1.338 2.774 2.21 4.887 2.21 4.775 0 7.958-3.675 7.958-9.196s-3.183-9.197-7.958-9.197Zm-5.887 9.212c0-3.817 2-6.17 5.309-6.17 3.296 0 5.31 2.353 5.31 6.17 0 3.817-2 6.169-5.31 6.169-3.309 0-5.309-2.366-5.309-6.17Zm18.845-8.747v2.916h4.14v11.648h-4.14v2.915h13.746v-2.915h-6.366v-6.409c0-3.704 1.155-5.591 3.422-5.591 1.831 0 2.775 1.07 2.775 3.14v2.057h3.352v-2.521c0-3.55-1.915-5.705-5.07-5.705-1.676 0-3.071.634-3.831 1.803h-.888V42.55h-7.14Zm30.042 17.944c5.211 0 8.69-3.676 8.69-9.197 0-5.521-3.479-9.197-8.69-9.197-5.211 0-8.69 3.676-8.69 9.197 0 5.52 3.465 9.197 8.69 9.197Zm-5.451-9.197c0-3.817 2.071-6.17 5.451-6.17 3.394 0 5.451 2.353 5.451 6.17 0 3.817-2.057 6.169-5.451 6.169-3.394 0-5.451-2.366-5.451-6.17ZM227 60.028h3.718l4.127-6.056.324-.845h.296l.324.845 4.07 6.056h3.944l-5.747-8.591 6.099-8.888h-3.62l-4.62 6.705-.323.845h-.296l-.324-.845-4.423-6.705h-3.887l6.042 9.17-5.704 8.31Zm20.69-17.479 6.338 16.014h2.648l-1.056 2.972c-.535 1.31-1.057 1.86-2.028 1.86-1.057 0-1.62-.55-2.184-1.86h-2.943c.239 3.056 2.155 4.775 5.31 4.775 2.126 0 3.859-1.395 4.718-3.789l7.127-19.972h-3.296l-4.62 13.099h-1.267l-5.155-13.099h-3.592Z"/>
    <path fill="url(#b)" d="M78.493 32.732V22.535H68.31v2.831H44.535v-2.83H34.352v2.83H10.577v-2.83H.394v10.196h2.831v12.465H.395v10.197h2.83V67.86H.395v10.197h10.182v-2.845h23.775v2.831h10.183v-2.83H68.31v2.83h10.183V67.845h-2.831V55.38h2.83V45.183h-2.83V32.718h2.83v.014Zm-41.873-7.93h5.662v5.663H36.62v-5.662ZM2.662 30.466v-5.662h5.662v5.662H2.662Zm0 22.662v-5.662h5.662v5.662H2.662Zm5.662 22.648H2.662v-5.662h5.662v5.662Zm33.958 0H36.62v-5.662h5.662v5.662Zm26.028-5.099H44.535v-2.83H34.352v2.83H10.577v-2.83h-2.83V55.38h2.83V45.183h-2.83V32.718h2.83v-2.83h23.775v2.83h10.183v-2.83H68.31v2.83h2.83v12.465h-2.83V55.38h2.83v12.465h-2.83v2.831Zm7.93-.563v5.662h-5.663v-5.662h5.662Zm0-22.648v5.662h-5.663v-5.662h5.662Zm-5.663-17v-5.662h5.662v5.662h-5.662Z"/>
    <path fill="#1960C4" d="M60.075 46.969a.673.673 0 0 0-.338.084L56.49 48.95a.694.694 0 0 0-.338.6v3.79c0 .246.127.477.338.6l.848.495c.412.206.564.203.752.203.61 0 .959-.375.959-1.026v-3.74c0-.054-.046-.092-.097-.092h-.407c-.052 0-.096.038-.096.091v3.74c0 .29-.298.58-.78.336l-.883-.524c-.031-.017-.055-.047-.055-.083v-3.79a.11.11 0 0 1 .055-.09l3.242-1.892a.094.094 0 0 1 .097 0l3.241 1.891c.031.02.056.054.056.091v3.79a.106.106 0 0 1-.049.09l-3.248 1.892a.099.099 0 0 1-.097 0l-.835-.503a.086.086 0 0 0-.082 0c-.23.132-.274.148-.49.223-.053.02-.134.048.028.14l1.09.649c.102.06.219.091.337.09.119.002.236-.03.338-.09l3.25-1.891a.696.696 0 0 0 .337-.6v-3.79a.695.695 0 0 0-.338-.6l-3.249-1.898a.67.67 0 0 0-.338-.084Z"/>
    <path fill="#1960C4" d="M60.944 49.677c-.925 0-1.476.398-1.476 1.06 0 .72.547.917 1.435 1.005 1.062.106 1.145.264 1.145.475 0 .367-.29.523-.973.523-.858 0-1.047-.217-1.11-.649-.008-.046-.043-.083-.09-.083h-.42a.1.1 0 0 0-.097.097c0 .553.297 1.208 1.718 1.208 1.027 0 1.62-.409 1.62-1.124 0-.709-.478-.9-1.476-1.033-1.007-.135-1.103-.2-1.103-.44 0-.197.081-.46.827-.46.667 0 .913.145 1.014.6a.095.095 0 0 0 .09.077h.42c.027 0 .052-.016.07-.035.017-.02.03-.043.027-.07-.065-.783-.581-1.151-1.62-1.151ZM40.976 42a.208.208 0 0 0-.207.21v5.338a.142.142 0 0 1-.214.126l-.862-.503a.41.41 0 0 0-.414 0l-3.442 2.01a.43.43 0 0 0-.207.37v4.02c0 .15.079.288.207.363l3.442 2.01a.407.407 0 0 0 .414 0l3.442-2.01a.416.416 0 0 0 .207-.363V43.549a.43.43 0 0 0-.214-.37l-2.048-1.158a.2.2 0 0 0-.104-.021Zm-22.141 5.018a.384.384 0 0 0-.186.049l-3.442 2.01a.414.414 0 0 0-.207.362l.007 5.395c0 .075.038.145.103.181a.2.2 0 0 0 .207 0l2.042-1.186a.427.427 0 0 0 .214-.363v-2.52c0-.15.078-.287.207-.362l.869-.51a.404.404 0 0 1 .207-.055c.07 0 .143.018.207.056l.869.509a.415.415 0 0 1 .207.363v2.52c0 .15.085.285.213.362l2.042 1.187a.2.2 0 0 0 .207 0 .209.209 0 0 0 .104-.182l.006-5.395a.419.419 0 0 0-.207-.362l-3.441-2.01a.382.382 0 0 0-.187-.05h-.041Zm30.928.049a.41.41 0 0 0-.206.055l-3.442 2.01a.414.414 0 0 0-.207.363v4.02c0 .151.084.288.214.363l3.414 1.968a.41.41 0 0 0 .407.007l2.07-1.166a.212.212 0 0 0 .11-.181.208.208 0 0 0-.104-.181l-3.462-2.01a.226.226 0 0 1-.11-.189V50.87c0-.075.045-.144.11-.181l1.075-.629a.205.205 0 0 1 .207 0l1.076.629a.207.207 0 0 1 .104.18v.992a.21.21 0 0 0 .103.181.203.203 0 0 0 .207 0l2.063-1.214a.417.417 0 0 0 .207-.363v-.97a.42.42 0 0 0-.207-.363l-3.422-2.01a.406.406 0 0 0-.206-.055Zm-10.29 3c.017 0 .038.005.055.014l1.18.691a.108.108 0 0 1 .054.091v1.382a.108.108 0 0 1-.055.09l-1.18.691a.104.104 0 0 1-.103 0l-1.18-.69a.108.108 0 0 1-.054-.091v-1.382c0-.038.023-.072.055-.09l1.18-.692a.089.089 0 0 1 .047-.014Z"/>
    <path fill="#1960C4" d="M29.174 47.046a.41.41 0 0 0-.206.056l-3.442 2.002a.43.43 0 0 0-.207.37v4.02c0 .15.078.288.207.363l3.442 2.01a.408.408 0 0 0 .413 0l3.442-2.01a.416.416 0 0 0 .207-.363v-4.02a.43.43 0 0 0-.207-.37l-3.442-2.002a.41.41 0 0 0-.207-.056Zm20.583 3.587c-.014 0-.03 0-.042.007l-.662.39a.08.08 0 0 0-.041.07v.768c0 .029.016.055.041.07l.662.384a.071.071 0 0 0 .076 0l.662-.384a.082.082 0 0 0 .042-.07V51.1a.082.082 0 0 0-.042-.07l-.662-.39c-.012-.008-.02-.007-.034-.007Z"/>
    <path fill="#fff" fill-rule="evenodd" d="M81.437 91.746h10.957L73.606 72.945l7.83 18.802Zm-7.831-18.802v26.62l7.817-7.832" clip-rule="evenodd"/>
  </g>
  <defs>
    <linearGradient id="b" x1="39.445" x2="39.445" y1="78.046" y2="22.535" gradientUnits="userSpaceOnUse">
      <stop stop-color="#1D40B2"/>
      <stop offset="1" stop-color="#1680D6"/>
    </linearGradient>
    <clipPath id="a">
      <path fill="#fff" d="M0 0h266v100H0z"/>
    </clipPath>
  </defs>
</svg>
